# Blender 4.4.0
# www.blender.org
o Plane
v 0.115306 0.039378 -0.081849
v -0.122013 0.046534 -0.069781
v 0.118040 -0.123390 0.081511
v -0.118986 -0.128107 0.073962
v 0.119045 -0.093970 0.059127
v 0.118986 -0.064724 0.036441
v 0.118986 -0.032027 0.018491
v 0.120226 0.001739 -0.001053
v 0.119595 0.033496 -0.019993
v 0.122738 0.061944 -0.044181
v 0.116540 0.058334 -0.068516
v -0.123576 0.062276 -0.047823
v -0.115072 0.061694 -0.037361
v -0.115635 0.028228 -0.013961
v -0.117702 -0.000659 0.002850
v -0.118986 -0.032027 0.018491
v -0.118986 -0.064053 0.036981
v -0.118986 -0.096080 0.055472
v 0.075753 0.040196 -0.079622
v 0.036199 0.041925 -0.077920
v -0.003354 0.045359 -0.077203
v -0.042907 0.044993 -0.074291
v -0.082460 0.047031 -0.072768
v -0.079324 -0.128107 0.073962
v -0.039662 -0.128107 0.073962
v -0.000000 -0.127402 0.075133
v 0.039662 -0.125447 0.077948
v 0.079264 -0.127558 0.074293
v -0.083654 0.063313 -0.055911
v -0.044940 0.060739 -0.061634
v -0.004823 0.062173 -0.060369
v 0.034456 0.061861 -0.065864
v 0.076987 0.062363 -0.068142
v -0.076985 0.060626 -0.035023
v -0.037083 0.061988 -0.036798
v 0.002195 0.061676 -0.042293
v 0.041665 0.063233 -0.041573
v 0.081218 0.063600 -0.044485
v -0.076123 0.030042 -0.016885
v -0.036611 0.031855 -0.019809
v 0.000726 0.030479 -0.018437
v 0.040286 0.032696 -0.018692
v 0.079940 0.033096 -0.019342
v -0.078047 -0.000260 0.002200
v -0.038393 0.000140 0.001549
v 0.001262 0.000540 0.000899
v 0.040916 0.000940 0.000248
v 0.080571 0.001339 -0.000402
v -0.079324 -0.032027 0.018491
v -0.039662 -0.032027 0.018491
v -0.000000 -0.032027 0.018491
v 0.039662 -0.032027 0.018491
v 0.079324 -0.032027 0.018491
v -0.079324 -0.064053 0.036981
v -0.039662 -0.064053 0.036981
v -0.000000 -0.064759 0.035810
v 0.039662 -0.064724 0.036441
v 0.079324 -0.064724 0.036441
v -0.079324 -0.096080 0.055472
v -0.039662 -0.096080 0.055472
v -0.000000 -0.096080 0.055472
v 0.039662 -0.096080 0.055472
v 0.080269 -0.098137 0.051909
vn -0.0000 0.5000 0.8660
vn -0.0503 0.7342 -0.6770
vn -0.0907 0.7762 -0.6239
vn -0.0962 0.7005 -0.7072
vn 0.0442 0.9933 0.1068
vn -0.0046 0.9968 0.0793
vn 0.0336 0.9961 0.0810
vn 0.0140 0.5249 0.8510
vn 0.0203 0.5229 0.8522
vn 0.0325 0.5165 0.8557
vn 0.0154 0.4807 0.8768
vn 0.0117 0.4982 0.8670
vn 0.0016 0.4773 0.8788
vn -0.0000 0.4737 0.8807
vn -0.0626 0.5079 0.8591
vn -0.0259 0.5360 0.8438
vn -0.2083 0.5979 0.7740
vn 0.0155 0.4614 0.8871
vn 0.0215 0.5477 0.8364
vn 0.0143 0.5000 0.8659
vn -0.0071 0.5002 0.8659
vn 0.0071 0.5000 0.8660
vn -0.0000 0.5252 0.8510
vn 0.0014 0.4860 0.8739
vn 0.0027 0.4894 0.8720
vn -0.0007 0.4804 0.8771
vn 0.0066 0.4738 0.8806
vn 0.0015 0.4821 0.8761
vn 0.0077 0.5034 0.8640
vn 0.0090 0.5066 0.8621
vn 0.0078 0.4991 0.8665
vn 0.0026 0.5070 0.8620
vn 0.0049 0.5122 0.8589
vn 0.0074 0.5839 0.8118
vn 0.0095 0.5766 0.8169
vn 0.0015 0.5639 0.8259
vn -0.0160 0.5757 0.8175
vn 0.0308 0.5349 0.8443
vn 0.0120 0.6422 0.7665
vn 0.0228 0.6279 0.7779
vn 0.0123 0.6009 0.7993
vn 0.0022 0.5867 0.8098
vn 0.0800 0.4943 0.8656
vn 0.0597 0.9898 -0.1292
vn 0.0379 0.9963 -0.0769
vn 0.0405 0.9868 -0.1567
vn 0.0382 0.9975 -0.0595
vn -0.0241 0.9985 -0.0488
vn -0.0204 0.9991 -0.0374
vn 0.0017 0.9999 0.0102
vn 0.0024 0.9999 0.0111
vn -0.0279 0.9992 -0.0293
vn -0.0142 0.9998 -0.0137
vn 0.0191 0.5354 -0.8444
vn -0.0319 0.4803 -0.8765
vn 0.0506 0.5724 -0.8184
vn -0.0408 0.4699 -0.8818
vn -0.0755 0.5029 -0.8610
vn -0.0349 0.5465 -0.8367
vn -0.0050 0.6793 -0.7338
vn 0.0165 0.6972 -0.7166
vn -0.0601 0.6339 -0.7711
vn -0.0550 0.6366 -0.7693
vn -0.2084 0.5967 0.7749
vn -0.0513 0.6067 0.7932
vn -0.0349 0.5473 0.8362
vn 0.0093 0.6077 0.7941
vn -0.0071 0.5065 0.8622
vn -0.0543 0.8097 -0.5843
vn -0.0126 0.9978 0.0657
vn -0.0342 0.5731 0.8188
vt 0.618681 0.000034
vt 0.738838 0.160348
vt 0.618674 0.160330
vt 0.740271 0.163559
vt 0.882476 0.000000
vt 0.871170 0.159784
vt 0.985479 0.010659
vt 0.990505 0.167703
vt 0.035530 0.167680
vt 0.156326 0.013483
vt 0.146261 0.173194
vt 0.264943 0.005145
vt 0.262708 0.165416
vt 0.378345 0.160296
vt 0.378352 -0.000000
vt 0.498509 0.160313
vt 0.498516 0.000017
vt 0.498882 0.961856
vt 0.618128 0.805389
vt 0.619170 0.961998
vt 0.498889 0.801560
vt 0.618653 0.641219
vt 0.498406 0.480923
vt 0.498896 0.641264
vt 0.498502 0.320610
vt 0.618660 0.480923
vt 0.618667 0.320627
vt 0.378317 0.801481
vt 0.378310 0.961777
vt 0.378324 0.641185
vt 0.378331 0.480889
vt 0.378338 0.320592
vt 0.253770 0.806499
vt 0.251535 0.966770
vt 0.256004 0.646228
vt 0.258239 0.485957
vt 0.260474 0.325687
vt 0.131334 0.964210
vt 0.133569 0.803939
vt 0.135804 0.643668
vt 0.138038 0.483397
vt 0.136195 0.332905
vt 0.000000 0.969055
vt 0.006063 0.809169
vt 0.012125 0.649283
vt 0.015169 0.489783
vt 0.023842 0.330976
vt 0.859523 0.968318
vt 0.999321 0.810040
vt 0.998643 0.970279
vt 0.860201 0.808080
vt 1.000000 0.649802
vt 0.837252 0.639136
vt 0.985632 0.490826
vt 0.848558 0.479352
vt 0.996938 0.331042
vt 0.859864 0.319568
vt 0.738914 0.964554
vt 0.744950 0.803794
vt 0.745628 0.643555
vt 0.738914 0.484037
vt 0.739593 0.323798
vt 0.738914 0.957893
vt 0.737872 0.801284
vt 0.738914 0.480922
vt 0.738410 0.641174
vt 0.738831 0.320644
vt 0.738845 0.000051
vt 0.740950 0.003321
vt 0.043659 0.010698
s 1
f 18/1/1 24/2/1 59/3/1
f 23/4/2 12/5/3 29/6/4
f 29/6/5 13/7/6 34/8/7
f 34/9/8 14/10/9 39/11/10
f 39/11/10 15/12/11 44/13/12
f 15/12/11 49/14/13 44/13/12
f 16/15/14 54/16/1 49/14/13
f 17/17/1 59/3/1 54/16/1
f 6/18/15 63/19/16 5/20/17
f 58/21/18 62/22/19 63/19/16
f 56/23/20 62/22/19 57/24/21
f 55/25/22 61/26/23 56/23/20
f 54/16/1 60/27/1 55/25/22
f 53/28/24 6/18/15 7/29/25
f 52/30/26 58/21/18 53/28/24
f 52/30/26 56/23/20 57/24/21
f 51/31/27 55/25/22 56/23/20
f 49/14/13 55/25/22 50/32/28
f 48/33/29 7/29/25 8/34/30
f 47/35/31 53/28/24 48/33/29
f 46/36/32 52/30/26 47/35/31
f 45/37/33 51/31/27 46/36/32
f 44/13/12 50/32/28 45/37/33
f 9/38/34 48/33/29 8/34/30
f 43/39/35 47/35/31 48/33/29
f 42/40/36 46/36/32 47/35/31
f 41/41/37 45/37/33 46/36/32
f 40/42/38 44/13/12 45/37/33
f 10/43/39 43/39/35 9/38/34
f 38/44/40 42/40/36 43/39/35
f 37/45/41 41/41/37 42/40/36
f 36/46/42 40/42/38 41/41/37
f 35/47/43 39/11/10 40/42/38
f 11/48/44 38/49/45 10/50/46
f 33/51/47 37/52/48 38/49/45
f 32/53/49 36/54/50 37/52/48
f 31/55/51 35/56/52 36/54/50
f 30/57/53 34/8/7 35/56/52
f 1/58/54 33/51/55 11/48/56
f 19/59/57 32/53/58 33/51/55
f 20/60/59 31/55/60 32/53/58
f 21/61/61 30/57/62 31/55/60
f 22/62/63 29/6/4 30/57/62
f 63/19/16 3/63/64 5/20/17
f 62/22/19 28/64/65 63/19/16
f 62/22/19 26/65/66 27/66/67
f 61/26/23 25/67/68 26/65/66
f 59/3/1 25/67/68 60/27/1
f 18/1/1 4/68/1 24/2/1
f 23/4/2 2/69/69 12/5/3
f 29/6/5 12/5/70 13/7/6
f 34/9/8 13/70/71 14/10/9
f 39/11/10 14/10/9 15/12/11
f 15/12/11 16/15/14 49/14/13
f 16/15/14 17/17/1 54/16/1
f 17/17/1 18/1/1 59/3/1
f 6/18/15 58/21/18 63/19/16
f 58/21/18 57/24/21 62/22/19
f 56/23/20 61/26/23 62/22/19
f 55/25/22 60/27/1 61/26/23
f 54/16/1 59/3/1 60/27/1
f 53/28/24 58/21/18 6/18/15
f 52/30/26 57/24/21 58/21/18
f 52/30/26 51/31/27 56/23/20
f 51/31/27 50/32/28 55/25/22
f 49/14/13 54/16/1 55/25/22
f 48/33/29 53/28/24 7/29/25
f 47/35/31 52/30/26 53/28/24
f 46/36/32 51/31/27 52/30/26
f 45/37/33 50/32/28 51/31/27
f 44/13/12 49/14/13 50/32/28
f 9/38/34 43/39/35 48/33/29
f 43/39/35 42/40/36 47/35/31
f 42/40/36 41/41/37 46/36/32
f 41/41/37 40/42/38 45/37/33
f 40/42/38 39/11/10 44/13/12
f 10/43/39 38/44/40 43/39/35
f 38/44/40 37/45/41 42/40/36
f 37/45/41 36/46/42 41/41/37
f 36/46/42 35/47/43 40/42/38
f 35/47/43 34/9/8 39/11/10
f 11/48/44 33/51/47 38/49/45
f 33/51/47 32/53/49 37/52/48
f 32/53/49 31/55/51 36/54/50
f 31/55/51 30/57/53 35/56/52
f 30/57/53 29/6/5 34/8/7
f 1/58/54 19/59/57 33/51/55
f 19/59/57 20/60/59 32/53/58
f 20/60/59 21/61/61 31/55/60
f 21/61/61 22/62/63 30/57/62
f 22/62/63 23/4/2 29/6/4
f 63/19/16 28/64/65 3/63/64
f 62/22/19 27/66/67 28/64/65
f 62/22/19 61/26/23 26/65/66
f 61/26/23 60/27/1 25/67/68
f 59/3/1 24/2/1 25/67/68
